<svg version="1.1" id="Layer_1" xmlns="http://www.w3.org/2000/svg" xmlns:xlink="http://www.w3.org/1999/xlink" x="0px" y="0px"
	 width="100%" viewBox="0 0 500 500" enable-background="new 0 0 500 500" xml:space="preserve">
<path fill="none" opacity="1.000000" stroke="none"
	d="
M278.000000,501.000000
	C185.333359,501.000000 93.166710,501.000000 1.000049,501.000000
	C1.000033,334.333405 1.000033,167.666794 1.000016,1.000139
	C167.666565,1.000093 334.333130,1.000093 500.999756,1.000046
	C500.999847,167.666519 500.999847,334.333038 500.999939,500.999786
	C426.833344,501.000000 352.666656,501.000000 278.000000,501.000000
M140.939865,333.966003
	C140.939865,333.966003 140.948273,333.884491 141.585327,333.845306
	C142.402237,333.237518 143.219131,332.629700 144.519836,331.930878
	C144.519836,331.930878 145.006927,331.859467 145.507645,331.830688
	C145.695618,331.566681 145.883591,331.302643 146.019562,331.050781
	C146.019562,331.050781 146.078018,331.056671 146.664841,330.804688
	C147.444916,331.534210 148.225006,332.263733 148.533371,333.344879
	C148.370468,333.903687 148.207550,334.462524 147.606400,335.387848
	C147.529449,335.936951 147.452499,336.486023 147.258987,337.695770
	C147.251236,338.142151 147.243469,338.588501 146.894028,339.636566
	C147.543930,342.132050 148.193817,344.627563 149.173294,347.756012
	C153.657928,351.082825 158.273041,350.554626 162.439194,347.506653
	C166.665924,344.414337 170.971497,341.182220 174.376831,337.259796
	C186.072983,323.787628 197.340820,309.944519 208.891678,296.344513
	C211.277939,293.534912 213.765579,290.348572 216.922272,288.743988
	C225.971970,284.143707 235.344833,280.162781 244.688171,276.166351
	C247.565796,274.935516 250.757141,274.438141 254.915924,273.301147
	C253.771866,276.095032 253.004044,277.553558 252.566757,279.105194
	C249.603149,289.620941 243.943527,299.634216 247.035034,311.262604
	C248.162521,315.503601 251.627716,319.335693 255.925339,318.944672
	C260.297485,318.546936 264.998688,318.057892 268.828308,316.149200
	C277.803497,311.675873 286.374847,306.383087 295.050049,301.319946
	C301.717712,297.428497 308.294525,293.381439 314.911774,289.403595
	C314.972595,293.390015 313.768097,296.633057 313.060486,299.981079
	C311.259277,308.503601 307.168884,317.519989 308.592499,325.520538
	C310.805450,337.957062 321.109253,343.468262 333.005707,336.127747
	C350.787354,325.155884 361.066315,308.116943 367.189758,288.366302
	C368.275055,284.865906 367.926788,279.955841 373.216003,279.093201
	C380.028503,277.982117 386.876526,277.085876 393.682098,275.936157
	C399.199768,275.004028 404.766510,274.143341 410.122620,272.596741
	C411.917389,272.078461 413.956848,269.709869 414.329041,267.872040
	C414.595520,266.556183 412.533691,264.371796 411.019836,263.220093
	C409.842987,262.324799 407.877594,262.025513 406.315857,262.146667
	C394.455505,263.066681 382.464996,263.375092 370.815979,265.513428
	C364.779541,266.621490 362.671631,263.302582 359.383820,260.789307
	C360.813477,258.089447 362.428131,255.872421 363.175934,253.393860
	C363.922607,250.918839 364.898682,247.461975 363.774017,245.747955
	C362.462799,243.749634 359.027374,242.277618 356.435303,242.148346
	C348.354248,241.745331 343.882172,248.011887 339.185242,253.127075
	C332.011841,260.939301 326.305450,269.810303 316.102020,274.866608
	C300.345428,282.674805 285.305634,291.925079 269.886200,300.426605
	C268.666748,301.098969 266.858704,300.703796 264.294159,300.872467
	C266.342529,294.643738 268.045258,289.346100 269.828033,284.075531
	C272.050873,277.503906 274.499634,271.003845 276.541351,264.377563
	C277.805573,260.274597 276.239471,256.161194 272.692596,254.546753
	C270.337006,253.474518 266.565277,254.651306 263.736053,255.674698
	C258.948639,257.406403 254.547485,260.239288 249.729355,261.845642
	C240.433121,264.945007 230.959412,267.512024 221.207977,270.403931
	C221.355515,269.372772 221.831329,268.233429 221.602280,267.259979
	C220.728577,263.546600 220.604691,259.102753 218.410538,256.368103
	C213.679764,250.471909 207.861359,250.660385 201.160202,254.843079
	C193.730438,259.480530 186.444946,264.702911 180.194519,270.796692
	C169.666916,281.060455 160.005722,292.212891 149.500610,303.195282
	C148.617065,303.466431 147.733521,303.737579 147.000732,303.226013
	C152.778564,284.212585 157.515045,264.803284 164.559784,246.271469
	C177.599091,211.970535 191.994308,178.185181 205.811493,144.179703
	C208.046692,138.678680 210.544693,133.253922 212.319382,127.604828
	C214.127625,121.848938 210.205780,117.942101 204.716202,120.154007
	C201.569046,121.422089 198.087845,123.812195 196.510620,126.666252
	C191.421814,135.874680 186.908066,145.426117 182.613419,155.042206
	C176.330032,169.111267 170.287598,183.292664 164.403427,197.533997
	C158.408615,212.043076 152.295547,226.528381 147.041931,241.311127
	C142.368576,254.461075 139.061600,268.090210 134.675064,281.350250
	C129.820801,296.024109 126.638496,310.855713 126.921005,326.424072
	C126.988190,330.126526 128.031921,332.376953 131.455276,334.615570
	C133.650162,334.776031 135.845047,334.936462 138.708008,334.952850
	C139.151184,334.848846 139.594360,334.744843 140.416489,334.573761
	C140.651230,334.433929 140.798386,334.230652 140.939865,333.966003
M284.234375,209.147797
	C285.011230,209.434525 285.786041,209.727005 286.565308,210.007065
	C292.605194,212.177811 296.816040,208.748718 295.770020,202.513000
	C294.745514,196.405304 287.583527,194.251404 281.917847,198.705795
	C279.898346,200.293518 278.779388,203.026688 277.249359,205.237015
	C279.310272,206.517838 281.371216,207.798660 284.234375,209.147797
z"/>
<path fill="#34317D" opacity="1.000000" stroke="none"
	d="
M148.044647,335.021332
	C148.207550,334.462524 148.370468,333.903687 149.042221,332.987549
	C152.760818,327.725677 155.970551,322.821167 159.180283,317.916626
	C158.537567,317.454651 157.894836,316.992676 157.252106,316.530701
	C153.527420,321.372681 149.802719,326.214661 146.078018,331.056671
	C146.078018,331.056671 146.019562,331.050781 145.862549,331.174316
	C145.471222,331.483276 145.238358,331.670471 145.006927,331.859467
	C145.006927,331.859467 144.519836,331.930878 143.981644,332.060516
	C142.611725,332.754944 141.779999,333.319733 140.948273,333.884491
	C140.948273,333.884491 140.939865,333.966003 140.749786,334.061493
	C140.367676,334.298859 140.193619,334.460114 140.037537,334.640808
	C139.594360,334.744843 139.151184,334.848846 138.063721,334.871826
	C135.276321,334.556763 133.133240,334.322693 130.990143,334.088623
	C128.031921,332.376953 126.988190,330.126526 126.921005,326.424072
	C126.638496,310.855713 129.820801,296.024109 134.675064,281.350250
	C139.061600,268.090210 142.368576,254.461075 147.041931,241.311127
	C152.295547,226.528381 158.408615,212.043076 164.403427,197.533997
	C170.287598,183.292664 176.330032,169.111267 182.613419,155.042206
	C186.908066,145.426117 191.421814,135.874680 196.510620,126.666252
	C198.087845,123.812195 201.569046,121.422089 204.716202,120.154007
	C210.205780,117.942101 214.127625,121.848938 212.319382,127.604828
	C210.544693,133.253922 208.046692,138.678680 205.811493,144.179703
	C191.994308,178.185181 177.599091,211.970535 164.559784,246.271469
	C157.515045,264.803284 152.778564,284.212585 146.714340,303.836548
	C146.146851,305.743561 145.865738,307.040039 145.584625,308.336487
	C146.214951,308.555389 146.845276,308.774261 147.475601,308.993134
	C148.310440,306.992615 149.145279,304.992096 149.980103,302.991547
	C160.005722,292.212891 169.666916,281.060455 180.194519,270.796692
	C186.444946,264.702911 193.730438,259.480530 201.160202,254.843079
	C207.861359,250.660385 213.679764,250.471909 218.410538,256.368103
	C220.604691,259.102753 220.728577,263.546600 221.602280,267.259979
	C221.831329,268.233429 221.355515,269.372772 221.207977,270.403931
	C230.959412,267.512024 240.433121,264.945007 249.729355,261.845642
	C254.547485,260.239288 258.948639,257.406403 263.736053,255.674698
	C266.565277,254.651306 270.337006,253.474518 272.692596,254.546753
	C276.239471,256.161194 277.805573,260.274597 276.541351,264.377563
	C274.499634,271.003845 272.050873,277.503906 269.828033,284.075531
	C268.045258,289.346100 266.342529,294.643738 264.294159,300.872467
	C266.858704,300.703796 268.666748,301.098969 269.886200,300.426605
	C285.305634,291.925079 300.345428,282.674805 316.102020,274.866608
	C326.305450,269.810303 332.011841,260.939301 339.185242,253.127075
	C343.882172,248.011887 348.354248,241.745331 356.435303,242.148346
	C359.027374,242.277618 362.462799,243.749634 363.774017,245.747955
	C364.898682,247.461975 363.922607,250.918839 363.175934,253.393860
	C362.428131,255.872421 360.813477,258.089447 359.383820,260.789307
	C362.671631,263.302582 364.779541,266.621490 370.815979,265.513428
	C382.464996,263.375092 394.455505,263.066681 406.315857,262.146667
	C407.877594,262.025513 409.842987,262.324799 411.019836,263.220093
	C412.533691,264.371796 414.595520,266.556183 414.329041,267.872040
	C413.956848,269.709869 411.917389,272.078461 410.122620,272.596741
	C404.766510,274.143341 399.199768,275.004028 393.682098,275.936157
	C386.876526,277.085876 380.028503,277.982117 373.216003,279.093201
	C367.926788,279.955841 368.275055,284.865906 367.189758,288.366302
	C361.066315,308.116943 350.787354,325.155884 333.005707,336.127747
	C321.109253,343.468262 310.805450,337.957062 308.592499,325.520538
	C307.168884,317.519989 311.259277,308.503601 313.060486,299.981079
	C313.768097,296.633057 314.972595,293.390015 314.911774,289.403595
	C308.294525,293.381439 301.717712,297.428497 295.050049,301.319946
	C286.374847,306.383087 277.803497,311.675873 268.828308,316.149200
	C264.998688,318.057892 260.297485,318.546936 255.925339,318.944672
	C251.627716,319.335693 248.162521,315.503601 247.035034,311.262604
	C243.943527,299.634216 249.603149,289.620941 252.566757,279.105194
	C253.004044,277.553558 253.771866,276.095032 254.915924,273.301147
	C250.757141,274.438141 247.565796,274.935516 244.688171,276.166351
	C235.344833,280.162781 225.971970,284.143707 216.922272,288.743988
	C213.765579,290.348572 211.277939,293.534912 208.891678,296.344513
	C197.340820,309.944519 186.072983,323.787628 174.376831,337.259796
	C170.971497,341.182220 166.665924,344.414337 162.439194,347.506653
	C158.273041,350.554626 153.657928,351.082825 149.006622,347.051636
	C148.305206,343.909821 147.770462,341.472351 147.235718,339.034882
	C147.243469,338.588501 147.251236,338.142151 147.456177,337.236206
	C147.783813,336.191528 147.914230,335.606415 148.044647,335.021332
M327.437988,318.427551
	C327.754242,318.472412 328.213409,318.676636 328.366425,318.539429
	C338.992493,309.011505 345.606598,297.080353 349.751862,283.494232
	C341.735657,282.180237 339.110870,282.730164 336.935883,287.487457
	C332.507385,297.173828 327.778076,306.825409 327.437988,318.427551
M194.938843,278.407288
	C188.700836,284.792145 182.462830,291.177002 176.224838,297.561890
	C187.602295,294.444214 202.409149,279.010956 202.049408,271.924591
	C199.629745,273.966888 197.405273,275.844391 194.938843,278.407288
M165.915085,308.088898
	C166.836868,308.399323 167.758636,308.709747 168.680405,309.020203
	C168.787552,308.375244 168.894699,307.730286 169.001862,307.085327
	C168.056976,307.286896 167.112106,307.488495 165.915085,308.088898
M172.548462,302.477844
	C172.083481,302.505737 171.618515,302.533630 171.153534,302.561493
	C171.229797,303.017700 171.306061,303.473907 171.382324,303.930115
	C171.777115,303.558411 172.171921,303.186707 172.548462,302.477844
M174.469223,303.511841
	C174.469223,303.511841 174.513138,303.499359 174.469223,303.511841
z"/>
<path fill="#37347C" opacity="1.000000" stroke="none"
	d="
M283.833252,209.113647
	C281.371216,207.798660 279.310272,206.517838 277.249359,205.237000
	C278.779388,203.026688 279.898346,200.293518 281.917847,198.705795
	C287.583527,194.251404 294.745514,196.405304 295.770020,202.513000
	C296.816040,208.748718 292.605194,212.177811 286.565308,210.007065
	C285.786041,209.727005 285.011230,209.434525 283.833252,209.113647
z"/>
<path fill="#2D296B" opacity="1.000000" stroke="none"
	d="
M146.371429,330.930664
	C149.802719,326.214661 153.527420,321.372681 157.252106,316.530701
	C157.894836,316.992676 158.537567,317.454651 159.180283,317.916626
	C155.970551,322.821167 152.760818,327.725677 149.278076,332.811737
	C148.225006,332.263733 147.444916,331.534210 146.371429,330.930664
z"/>
<path fill="#2D2A70" opacity="1.000000" stroke="none"
	d="
M149.740356,303.093414
	C149.145279,304.992096 148.310440,306.992615 147.475601,308.993134
	C146.845276,308.774261 146.214951,308.555389 145.584625,308.336487
	C145.865738,307.040039 146.146851,305.743561 146.638962,304.227905
	C147.733521,303.737579 148.617065,303.466431 149.740356,303.093414
z"/>
<path fill="#2D296B" opacity="1.000000" stroke="none"
	d="
M131.222717,334.352112
	C133.133240,334.322693 135.276321,334.556763 137.729675,334.943848
	C135.845047,334.936462 133.650162,334.776031 131.222717,334.352112
z"/>
<path fill="#2D296B" opacity="1.000000" stroke="none"
	d="
M147.064880,339.335724
	C147.770462,341.472351 148.305206,343.909821 148.841827,346.735168
	C148.193817,344.627563 147.543930,342.132050 147.064880,339.335724
z"/>
<path fill="#2D296B" opacity="1.000000" stroke="none"
	d="
M141.266815,333.864899
	C141.779999,333.319733 142.611725,332.754944 143.739746,332.106018
	C143.219131,332.629700 142.402237,333.237518 141.266815,333.864899
z"/>
<path fill="#2D296B" opacity="1.000000" stroke="none"
	d="
M147.825531,335.204590
	C147.914230,335.606415 147.783813,336.191528 147.514465,336.905884
	C147.452499,336.486023 147.529449,335.936951 147.825531,335.204590
z"/>
<path fill="#2D296B" opacity="1.000000" stroke="none"
	d="
M145.257294,331.845093
	C145.238358,331.670471 145.471222,331.483276 145.888550,331.168274
	C145.883591,331.302643 145.695618,331.566681 145.257294,331.845093
z"/>
<path fill="#2D296B" opacity="1.000000" stroke="none"
	d="
M140.227020,334.607300
	C140.193619,334.460114 140.367676,334.298859 140.708847,334.060486
	C140.798386,334.230652 140.651230,334.433929 140.227020,334.607300
z"/>
<path fill="#34317D" opacity="1.000000" stroke="none"
	d="
M327.278809,318.093384
	C327.778076,306.825409 332.507385,297.173828 336.935883,287.487457
	C339.110870,282.730164 341.735657,282.180237 349.751862,283.494232
	C345.606598,297.080353 338.992493,309.011505 328.366425,318.539429
	C328.213409,318.676636 327.754242,318.472412 327.278809,318.093384
z"/>
<path fill="#34317D" opacity="1.000000" stroke="none"
	d="
M195.059814,278.064575
	C197.405273,275.844391 199.629745,273.966888 202.049408,271.924591
	C202.409149,279.010956 187.602295,294.444214 176.224838,297.561890
	C182.462830,291.177002 188.700836,284.792145 195.059814,278.064575
z"/>
<path fill="#2B276B" opacity="1.000000" stroke="none"
	d="
M166.041153,307.889465
	C167.112106,307.488495 168.056976,307.286896 169.001862,307.085327
	C168.894699,307.730286 168.787552,308.375244 168.680405,309.020203
	C167.758636,308.709747 166.836868,308.399323 166.041153,307.889465
z"/>
<path fill="#2B276B" opacity="1.000000" stroke="none"
	d="
M172.557587,302.646423
	C172.171921,303.186707 171.777115,303.558411 171.382324,303.930115
	C171.306061,303.473907 171.229797,303.017700 171.153534,302.561493
	C171.618515,302.533630 172.083481,302.505737 172.557587,302.646423
z"/>
<path fill="#2B276B" opacity="1.000000" stroke="none"
	d="
M174.491180,303.505615
	C174.513138,303.499359 174.469223,303.511841 174.491180,303.505615
z"/>
</svg>
